<svg width="420" height="131" viewBox="0 0 420 131" fill="none" xmlns="http://www.w3.org/2000/svg">
<path fill-rule="evenodd" clip-rule="evenodd" d="M170.196 0.0833749C169.87 0.140647 168.43 0.359519 166.997 0.569836C160.135 1.57555 153.341 4.66898 146.495 9.90313C143.454 12.2287 141.602 13.9124 136.911 18.619C132.461 23.083 130.228 24.9207 127.416 26.4342C126.504 26.9254 125.651 27.4031 125.52 27.4958C124.412 28.2831 120.008 29.7128 117.057 30.2432C114.806 30.6477 114.701 30.646 112.317 30.1615C108.834 29.4542 106.52 28.6123 99.3903 25.458C98.9016 25.2417 95.3553 23.5171 91.5098 21.6255C87.6644 19.7338 83.4248 17.6651 82.0888 17.0282C80.7528 16.3913 78.5131 15.3248 77.1117 14.6582C73.7976 13.0819 66.9919 10.1667 66.6255 10.1667C66.4686 10.1667 66.0041 10.0143 65.5934 9.82779C65.1826 9.64148 63.94 9.22085 62.832 8.89266C50.4986 5.24147 38.8125 4.43086 31.0456 6.68778C29.0308 7.2731 24.4096 9.26695 23.7071 9.85394C23.5014 10.026 23.2521 10.1667 23.1535 10.1667C22.8904 10.1667 19.4597 12.5747 19.4597 12.7592C19.4597 12.8454 19.1666 13.0897 18.808 13.3022C16.7728 14.5082 12.2687 20.1193 9.49762 24.9007C6.28618 30.4417 2.95054 38.581 1.60909 44.15C0.50487 48.7337 0.327826 49.8535 0.707037 49.8535C0.922951 49.8535 1.92122 47.7076 1.92122 47.2432C1.92122 47.0978 2.13453 46.5362 2.39524 45.9951C2.65594 45.454 2.86925 44.9235 2.86925 44.8161C2.86925 44.5495 4.77431 40.0977 6.07264 37.3305C6.65709 36.0848 7.13538 35.0206 7.13538 34.9659C7.13538 34.7129 9.42012 30.3045 10.849 27.8005C16.6308 17.6682 21.1674 13.2955 29.4764 9.84562C30.5846 9.38554 33.5752 8.59679 35.4421 8.2724C37.5317 7.90904 45.712 7.97701 48.4931 8.38053C52.672 8.98724 57.9641 10.0833 60.9359 10.9576C63.0946 11.5926 67.9433 13.2934 69.1127 13.8257C69.5037 14.0037 70.517 14.4457 71.3643 14.8077C74.2948 16.0603 80.4354 19.0052 90.486 23.9784C94.6805 26.0542 98.1792 27.7525 98.2607 27.7525C98.3423 27.7525 98.8566 27.9537 99.4034 28.1997C99.9501 28.4459 101.197 28.9887 102.175 29.4062C103.153 29.8235 104.273 30.309 104.664 30.4851C105.055 30.6612 105.695 30.8818 106.086 30.9752C106.477 31.0686 106.909 31.2323 107.045 31.3392C107.688 31.8414 113.017 32.9807 114.722 32.9804C117.822 32.9797 122.657 31.6185 126.702 29.6078C130.902 27.5193 134.929 24.4344 138.584 20.5033C139.835 19.159 141.829 17.2188 143.017 16.1922C144.204 15.1656 145.398 14.1116 145.67 13.8502C147.215 12.3659 149.416 10.7506 153.25 8.28524C155.045 7.13075 158.919 5.31158 161.308 4.50073C165.324 3.13783 167.955 2.7229 172.566 2.72552C176.215 2.72766 177.046 2.80465 179.478 3.36526C184.239 4.46271 186.969 5.59675 191.171 8.22226C195.548 10.9571 201.961 16.19 202.318 17.3193C202.541 18.024 201.783 20.0991 200.127 23.3128C199.803 23.9423 199.596 24.5157 199.667 24.5868C199.804 24.7244 200.637 23.89 201.384 22.8674C202.76 20.9822 203.921 19.5211 204.237 19.278C204.463 19.1036 204.828 19.0724 205.23 19.1932C206.146 19.4681 209.615 20.8824 209.895 21.0943C210.244 21.3593 211.924 21.8755 212.044 21.755C212.101 21.698 211.268 21.0197 210.192 20.2481C206.993 17.9536 206.279 17.373 205.991 16.8329C205.735 16.3531 206.014 15.3203 207.246 12.1867C207.709 11.0103 208.165 9.72703 208.26 9.33492C208.417 8.68852 208.396 8.65264 208.037 8.94898C207.819 9.12864 207.25 9.9307 206.771 10.7313C206.292 11.5317 205.696 12.454 205.446 12.7808C205.197 13.1075 204.843 13.7356 204.659 14.1762C204.415 14.7627 204.245 14.9153 204.029 14.7447C203.866 14.6166 203.039 13.9507 202.192 13.2649C201.345 12.579 199.692 11.2413 198.518 10.2919C196.413 8.58847 192.141 5.65474 190.561 4.82773C186.237 2.56344 184.205 1.83506 179.202 0.755199C176.611 0.195781 171.658 -0.173758 170.196 0.0833749ZM372.78 16.2404C368.582 17.2606 365.124 20.7248 363.185 25.8513C362.217 28.4119 361.336 33.3818 361.601 34.7944C361.732 35.4971 361.677 35.6142 361.115 35.8286C360.767 35.9614 359.822 36.0743 359.016 36.0793C358.21 36.0845 355.79 36.2423 353.639 36.4301C351.489 36.6178 347.009 36.9322 343.685 37.1285C340.361 37.3248 336.788 37.5907 335.745 37.7193C334.703 37.8479 331.716 38.0656 329.109 38.2029C326.502 38.34 323.249 38.5601 321.881 38.6915C319.444 38.9256 316.199 39.1654 302.801 40.1017C299.152 40.3569 294.086 40.7312 291.544 40.9339C285.814 41.3907 278.265 41.9551 273.887 42.2543C272.062 42.3791 269.235 42.5927 267.606 42.7291C265.977 42.8653 262.457 43.1291 259.785 43.3149C250.116 43.9877 244.392 44.4088 238.81 44.8577C235.681 45.1091 231.895 45.3801 230.396 45.4597C228.897 45.539 226.657 45.7094 225.419 45.8385C224.18 45.9673 220.181 46.2781 216.531 46.5293C208.397 47.089 203.104 47.6384 202.246 48.0125C201.61 48.2896 201.617 48.2957 202.666 48.3815C203.253 48.4295 205.012 48.3525 206.577 48.2107C208.141 48.0685 212.3 47.7926 215.82 47.5973C219.34 47.4019 223.232 47.136 224.471 47.0065C225.709 46.877 229.229 46.6591 232.292 46.5222C235.355 46.3853 238.715 46.1726 239.758 46.0493C240.8 45.9259 244.053 45.7125 246.986 45.5752C249.919 45.4378 254.292 45.169 256.704 44.978C259.115 44.7869 263.275 44.5205 265.947 44.386C268.619 44.2515 272.885 43.9886 275.427 43.8018C277.969 43.6148 281.489 43.3971 283.248 43.318C285.008 43.2389 287.728 43.0694 289.292 42.9416C290.856 42.8135 294.802 42.5568 298.061 42.371C301.32 42.1849 306.44 41.8712 309.438 41.6735C317.316 41.154 325.689 40.6174 332.072 40.2224C339.678 39.7519 348.321 39.1968 352.454 38.9132C354.345 38.7837 357.917 38.5637 360.394 38.4244C362.871 38.2851 365.377 38.0967 365.964 38.0054C366.922 37.8564 367.024 37.7797 366.964 37.2519C366.928 36.9287 366.887 34.7392 366.873 32.3865C366.851 28.6776 366.919 27.8247 367.384 25.9701C368.311 22.2778 369.669 20.4054 372.363 19.1076C373.879 18.3771 373.958 18.3657 377.34 18.3873C381.672 18.4149 384.525 19.0496 390.968 21.4201C394.41 22.6861 401.847 26.1828 405.662 28.3283C406.705 28.9148 408.038 29.6515 408.625 29.9652C410.012 30.7073 410.71 31.1199 413.726 32.9807C419.368 36.4605 419.53 36.5484 419.526 36.1295C419.525 36.0315 419.155 35.6988 418.703 35.3904C418.251 35.0819 417.585 34.5662 417.223 34.2447C415.194 32.4417 410.229 28.8872 405.662 25.9668C404.473 25.2061 399.691 22.5242 399.525 22.5242C399.476 22.5242 398.437 22.0566 397.216 21.4848C393.537 19.7611 389.728 18.3289 385.724 17.163C381.553 15.9486 375.698 15.5313 372.78 16.2404ZM98.7381 54.3949C98.4774 54.522 97.8102 55.3605 97.2558 56.2576C95.7923 58.6257 96.2538 59.275 98.5039 58.0138C99.8418 57.264 102.702 54.6466 102.515 54.3431C102.341 54.0603 99.3394 54.1014 98.7381 54.3949ZM126.587 61.0345C124.751 61.3101 122.773 62.2866 121.283 63.6521C117.361 67.2458 116.954 74.0297 120.478 77.0542C121.631 78.0437 124.291 79.3786 126.113 79.881C129.401 80.7881 130.687 81.6234 131.086 83.1108C131.417 84.3416 130.907 85.6156 129.716 86.5336C128.901 87.1622 128.72 87.2031 127.164 87.1068C125.067 86.9771 123.727 86.334 121.729 84.4982C120.043 82.9485 120.211 82.8962 118.885 85.3815C118.397 86.2964 117.732 87.4428 117.406 87.9293C116.639 89.0764 116.805 89.6477 118.237 90.7936C120.772 92.8212 124.016 93.9123 127.535 93.9208C133.657 93.9358 137.94 90.3115 138.666 84.4998C139.186 80.3463 137.914 76.9432 135.272 75.4182C134.087 74.7345 131.522 73.7228 130.379 73.4888C129.194 73.2461 127.04 72.2551 126.411 71.6634C125.396 70.7071 125.824 68.7546 127.24 67.877C128.61 67.0281 130.793 67.4709 134.008 69.2492C134.931 69.7599 135.276 69.5469 135.671 68.224C135.858 67.5963 136.302 66.4692 136.658 65.7192C137.014 64.9692 137.247 64.2051 137.177 64.0214C136.923 63.3587 135.369 62.4183 133.426 61.7526C131.228 60.9995 128.634 60.7272 126.587 61.0345ZM168.537 61.3382C165.913 62.0996 162.666 64.2653 160.953 66.3967C158.111 69.9317 156.835 74.6908 157.388 79.6868C157.769 83.13 158.8 85.7406 160.79 88.2974C164.258 92.7547 170.05 94.8474 175.529 93.6226C177.696 93.1383 179.747 92.3787 180.001 91.9664C180.188 91.6632 180.243 83.3755 180.06 83.1914C179.981 83.1122 179.408 83.477 178.786 84.0022C176.715 85.7539 175.821 86.093 173.277 86.0937C171.345 86.0944 170.86 86.0103 169.856 85.5003C168.176 84.6474 167.048 83.3601 166.258 81.3926C165.671 79.9318 165.574 79.3705 165.574 77.4268C165.574 75.5786 165.683 74.8814 166.167 73.6311C166.934 71.6475 168.429 70.0586 170.315 69.2218C173.074 67.9977 176.628 68.7228 178.887 70.9709C179.431 71.5118 179.938 71.9545 180.013 71.9545C180.089 71.9545 180.15 69.9357 180.15 67.4683C180.15 63.9573 180.08 62.9233 179.825 62.7118C179.647 62.5628 178.713 62.1609 177.751 61.8185C176.268 61.2902 175.518 61.183 172.803 61.1122C170.647 61.0561 169.256 61.1298 168.537 61.3382ZM297.938 61.5651C295.093 62.5994 292.717 64.3057 290.965 66.574C285.689 73.4018 286.237 83.6771 292.197 89.6962C292.824 90.3293 293.658 91.0753 294.052 91.3538C297.222 93.6 302.094 94.4726 306.13 93.5168C308.259 93.0128 309.957 92.2604 310.264 91.6851C310.399 91.4315 310.504 89.4643 310.504 87.1795C310.504 82.5889 310.48 82.5419 308.909 84.0412C307.258 85.6156 305.994 86.0854 303.394 86.0902C301.365 86.094 301.013 86.0265 299.839 85.4076C296.527 83.6626 294.818 79.0418 295.922 74.8151C296.665 71.97 298.055 70.2668 300.537 69.1627C301.682 68.6534 302.1 68.5918 303.75 68.6905C306.072 68.829 307.396 69.3968 308.835 70.8718C309.416 71.4674 310.03 71.9545 310.198 71.9545C310.437 71.9545 310.504 70.9994 310.504 67.5949C310.504 62.5542 310.637 62.8605 308.016 61.8422C306.55 61.2728 305.955 61.1863 302.92 61.1005C299.763 61.0114 299.358 61.0492 297.938 61.5651ZM143.177 77.307V93.3533L147.503 93.2887L151.828 93.2238L151.889 77.2421L151.95 61.2605H147.564H143.177V77.307ZM315.402 61.419C315.315 61.506 315.244 68.7268 315.244 77.4653V93.3533L319.57 93.2887L323.895 93.2238L323.956 77.2421L324.017 61.2605H319.789C317.463 61.2605 315.489 61.3318 315.402 61.419ZM50.0476 61.8546C49.867 62.088 49.1427 66.5526 48.4867 71.4792C48.304 72.8516 47.9418 75.3647 47.6823 77.0639C47.4225 78.7631 47.0412 81.3296 46.835 82.7674C46.6288 84.2052 46.2588 86.6113 46.0133 88.1144C45.7675 89.6175 45.498 91.3581 45.4146 91.9824L45.2627 93.1171L48.9941 93.0518L52.7255 92.9862L52.9301 92.2732C53.0427 91.8811 53.3922 89.5548 53.707 87.1035C54.0217 84.6522 54.3858 82.0321 54.5159 81.2812C54.646 80.5302 54.825 78.659 54.9138 77.1233C55.0025 75.5877 55.1632 74.331 55.2708 74.331C55.3784 74.331 55.5812 74.7856 55.7215 75.341C55.8619 75.8964 56.1221 76.7253 56.3001 77.1827C56.649 78.0798 57.8518 81.2876 59.32 85.2375C60.7971 89.2102 60.5451 88.984 63.5158 89.008L66.0389 89.0284L66.5684 88.2183C66.8597 87.7727 67.0981 87.2891 67.0981 87.1434C67.0981 86.998 67.566 85.6864 68.1379 84.2289C69.6369 80.4085 70.5262 77.7909 71.0158 75.7569L71.4448 73.9745L71.7378 75.2816C71.8989 76.0005 72.1516 77.8184 72.2995 79.3215C72.4471 80.8246 72.7211 83.0169 72.9081 84.1933C73.0951 85.3696 73.4122 87.772 73.613 89.5317C73.8137 91.2915 74.0766 92.8303 74.1972 92.9512C74.3949 93.1494 81.5496 93.1903 81.7449 92.9942C81.7897 92.9493 81.6079 91.5924 81.3411 89.9788C81.074 88.3651 80.7417 86.0826 80.6025 84.9062C80.4634 83.7299 80.257 82.3931 80.1442 81.9356C80.0311 81.4782 79.874 80.4622 79.7946 79.678C79.7154 78.8938 79.4417 76.8619 79.1864 75.1627C77.7623 65.6842 77.5312 64.1327 77.3913 63.1098C77.307 62.4931 77.1162 61.8971 76.9673 61.7854C76.8187 61.6735 74.9371 61.6433 72.7863 61.7184L68.8757 61.8546L68.5654 62.924C68.3948 63.5122 67.347 66.7739 66.2371 70.1722C65.1272 73.5705 64.1585 76.8626 64.0841 77.4883C64.0099 78.1138 63.8414 78.5896 63.7096 78.5454C63.3899 78.4387 62.2272 75.0598 60.3375 68.7463C59.75 66.7838 58.5656 63.2413 58.1127 62.0922C57.9361 61.6443 57.7048 61.6169 54.0786 61.6169C51.7948 61.6169 50.1571 61.7134 50.0476 61.8546ZM89.6631 61.7244L86.0388 61.8546L86.0546 72.4298C86.0691 81.9302 86.1172 83.2272 86.5287 85.1914C87.3281 89.007 88.7833 91.0111 91.8533 92.523C94.0385 93.5991 97.5379 94.1635 100.753 93.9584C104.959 93.6903 107.529 92.7034 109.76 90.5004C110.922 89.3526 111.177 88.925 111.751 87.1638C112.193 85.8069 112.476 84.286 112.611 82.5298C112.863 79.2728 112.898 62.1942 112.654 61.8094C112.521 61.6001 111.45 61.5632 108.523 61.6673L104.572 61.8078L104.493 72.5251C104.416 83.0973 104.408 83.2565 103.883 84.2503C102.449 86.9683 97.8578 87.5826 95.7293 85.3416C94.2567 83.7912 94.2544 83.7715 94.1207 72.1953C94.0145 63.0193 93.9515 61.621 93.6429 61.6086C93.4474 61.6005 91.6565 61.6526 89.6631 61.7244ZM195.914 61.7279C191.648 61.8479 191.41 61.8793 191.337 62.3299C191.243 62.9112 189.475 68.6643 189.037 69.8157C188.863 70.2732 187.262 75.139 185.48 80.6286C183.698 86.1182 182.131 90.8771 181.997 91.2038C181.863 91.5306 181.667 92.0921 181.561 92.4515L181.369 93.105H185.462H189.556L190.048 91.2632C190.318 90.2504 190.608 89.0814 190.692 88.6655C190.777 88.2499 190.973 87.8086 191.127 87.6852C191.298 87.5493 193.641 87.5194 197.081 87.6094L202.753 87.758L203.179 89.4215C203.414 90.3364 203.676 91.4058 203.762 91.7979C203.848 92.19 204.022 92.6447 204.15 92.8079C204.464 93.2081 212.146 93.2371 212.146 92.8381C212.146 92.5636 211.307 89.9269 208.713 82.0545C207.895 79.5711 206.185 74.331 204.913 70.4098C201.845 60.9537 202.07 61.4865 201.159 61.5497C200.75 61.578 198.39 61.6581 195.914 61.7279ZM340.663 61.6759C337.01 61.7393 336.575 61.7897 336.575 62.149C336.575 62.5397 334.717 68.622 334.087 70.291C333.915 70.7485 333.167 72.9942 332.426 75.2816C331.684 77.5689 330.928 79.7773 330.745 80.1892C330.562 80.601 330.413 81.0499 330.413 81.1868C330.413 81.3235 329.613 83.8423 328.635 86.7841C327.658 89.7257 326.858 92.3514 326.858 92.6188C326.858 93.0891 326.986 93.105 330.76 93.105C335.198 93.105 334.861 93.2697 335.38 90.8474C335.955 88.1686 336.126 87.6147 336.41 87.5156C336.566 87.4611 339.242 87.4935 342.356 87.5873L348.019 87.758L348.609 90.2532C348.934 91.6256 349.319 92.8272 349.464 92.9232C349.61 93.0192 351.409 93.0993 353.462 93.1014C356.86 93.1047 357.195 93.0677 357.194 92.6891C357.193 92.4605 356.81 91.0434 356.341 89.5403C355.873 88.0372 355.35 86.3261 355.18 85.738C355.009 85.1498 354.32 83.0645 353.647 81.1039C352.975 79.1433 352.278 77.058 352.099 76.4698C351.92 75.8816 351.612 74.9726 351.413 74.4498C351.215 73.927 351.048 73.355 351.043 73.1786C351.037 73.0023 350.88 72.5211 350.694 72.1092C350.509 71.6974 349.799 69.5959 349.117 67.4393C348.435 65.2826 347.685 63.0635 347.449 62.5081C347.023 61.5062 347.011 61.4986 345.886 61.5516C345.262 61.5808 342.912 61.6369 340.663 61.6759ZM250.416 62.1809C248.026 62.8014 245.889 65.0067 245.198 67.5655C244.822 68.9585 244.806 69.334 245.068 70.6137C245.232 71.4165 245.704 72.642 246.117 73.3369C247.669 75.9479 247.608 75.8082 247.255 75.9356C247.077 76 246.068 76.7079 245.013 77.5088C242.551 79.3788 241.51 80.8717 240.947 83.3406C240.54 85.1284 240.54 85.28 240.941 86.9576C241.172 87.9205 241.628 89.1898 241.955 89.7779C243.83 93.1466 248.575 94.7638 253.135 93.5876C255.346 93.0173 256.71 92.3246 258.461 90.8816L259.625 89.922L260.238 90.7361C260.575 91.1841 261.19 91.927 261.604 92.3871L262.356 93.2238H266.64C269.485 93.2238 270.924 93.1397 270.924 92.9731C270.924 92.8353 270.537 92.3006 270.063 91.7849C266.775 88.2012 265.236 86.415 265.236 86.1807C265.236 86.0315 266.036 85.0702 267.013 84.044C267.991 83.0179 268.791 82.0744 268.791 81.9475C268.791 81.7161 267.171 79.6412 265.859 78.1927C265.475 77.7678 264.973 77.4204 264.744 77.4204C264.516 77.4204 263.545 78.2664 262.587 79.3006C260.561 81.4874 260.71 81.4934 258.495 79.1367L257.093 77.6447L258.902 75.9284C261.265 73.6862 262.022 72.1435 262.015 69.5781C262.007 66.5521 260.444 64.0233 257.763 62.6982C256.752 62.1985 256.199 62.1072 253.86 62.0552C252.36 62.0217 250.811 62.0782 250.416 62.1809ZM254.819 67.233C255.977 67.5809 256.604 68.6517 256.373 69.8863C256.2 70.8093 254.047 73.618 253.512 73.618C252.788 73.618 251.252 70.902 251.252 69.6211C251.252 67.4545 252.585 66.5621 254.819 67.233ZM342.822 70.0557C343.023 70.7732 343.395 72.0555 343.648 72.9051C343.901 73.7547 344.498 75.7866 344.974 77.4204C345.451 79.0542 345.896 80.5782 345.964 80.8068C346.078 81.1911 345.789 81.2227 342.16 81.2227C339.174 81.2227 338.236 81.1516 338.241 80.9257C338.245 80.7624 338.467 79.88 338.735 78.9651C340.054 74.4605 341.051 70.815 341.659 68.271L341.83 67.5581L342.143 68.1546C342.315 68.4825 342.621 69.3381 342.822 70.0557ZM197.271 68.9245C197.468 69.4799 197.978 71.2178 198.404 72.7863C198.831 74.3547 199.537 76.7464 199.975 78.101C200.412 79.4556 200.77 80.7122 200.77 80.8933C200.77 81.1609 200.031 81.2227 196.832 81.2227H192.894L193.059 80.688C193.15 80.3938 193.372 79.6186 193.551 78.9651C193.731 78.3115 194.206 76.654 194.607 75.2816C195.007 73.9092 195.617 71.69 195.961 70.3504C196.306 69.0108 196.661 67.9146 196.75 67.9146C196.84 67.9146 197.075 68.3692 197.271 68.9245ZM251.476 81.0183C251.779 81.4287 252.679 82.4525 253.477 83.2933C255.384 85.3052 255.539 85.6529 254.795 86.2477C253.844 87.0072 251.812 87.8768 250.986 87.8768C249.527 87.8768 247.934 86.2137 247.934 84.6907C247.934 83.8064 248.79 82.1037 249.714 81.1497C250.182 80.6671 250.646 80.2721 250.745 80.2721C250.845 80.2721 251.174 80.6079 251.476 81.0183ZM360.802 90.1938L360.868 93.2238L364.369 93.2896C367.046 93.34 367.893 93.2839 367.969 93.052C368.143 92.5223 368.319 87.8782 368.18 87.5134C368.07 87.2266 367.39 87.1638 364.391 87.1638H360.735L360.802 90.1938Z" fill="#FAFAFA"/>
<path d="M109.118 126.18C107.39 126.18 106.034 125.694 105.05 124.722C104.078 123.75 103.592 122.346 103.592 120.51V113.4H105.932V120.42C105.932 121.716 106.208 122.658 106.76 123.246C107.324 123.834 108.116 124.128 109.136 124.128C110.156 124.128 110.942 123.834 111.494 123.246C112.046 122.658 112.322 121.716 112.322 120.42V113.4H114.626V120.51C114.626 122.346 114.134 123.75 113.15 124.722C112.178 125.694 110.834 126.18 109.118 126.18ZM118.984 126V113.4H120.91L126.418 122.598H125.41L130.828 113.4H132.754L132.772 126H130.558L130.54 116.874H131.008L126.4 124.56H125.356L120.676 116.874H121.216V126H118.984ZM135.473 126L141.143 113.4H143.447L149.135 126H146.687L141.809 114.642H142.745L137.885 126H135.473ZM138.083 123.084L138.713 121.248H145.517L146.147 123.084H138.083ZM163.776 126.18C162.792 126.18 161.886 126.018 161.058 125.694C160.23 125.37 159.51 124.92 158.898 124.344C158.286 123.756 157.812 123.072 157.476 122.292C157.14 121.5 156.972 120.636 156.972 119.7C156.972 118.764 157.14 117.906 157.476 117.126C157.812 116.334 158.286 115.65 158.898 115.074C159.51 114.486 160.23 114.03 161.058 113.706C161.886 113.382 162.786 113.22 163.758 113.22C164.742 113.22 165.642 113.382 166.458 113.706C167.286 114.03 168.006 114.486 168.618 115.074C169.23 115.65 169.704 116.334 170.04 117.126C170.376 117.906 170.544 118.764 170.544 119.7C170.544 120.636 170.376 121.5 170.04 122.292C169.704 123.084 169.23 123.768 168.618 124.344C168.006 124.92 167.286 125.37 166.458 125.694C165.642 126.018 164.748 126.18 163.776 126.18ZM163.758 124.128C164.394 124.128 164.982 124.02 165.522 123.804C166.062 123.588 166.53 123.282 166.926 122.886C167.322 122.478 167.628 122.01 167.844 121.482C168.072 120.942 168.186 120.348 168.186 119.7C168.186 119.052 168.072 118.464 167.844 117.936C167.628 117.396 167.322 116.928 166.926 116.532C166.53 116.124 166.062 115.812 165.522 115.596C164.982 115.38 164.394 115.272 163.758 115.272C163.122 115.272 162.534 115.38 161.994 115.596C161.466 115.812 160.998 116.124 160.59 116.532C160.194 116.928 159.882 117.396 159.654 117.936C159.438 118.464 159.33 119.052 159.33 119.7C159.33 120.336 159.438 120.924 159.654 121.464C159.882 122.004 160.194 122.478 160.59 122.886C160.986 123.282 161.454 123.588 161.994 123.804C162.534 124.02 163.122 124.128 163.758 124.128ZM162.246 112.374L164.676 109.908H167.322L164.19 112.374H162.246ZM176.485 126V115.38H172.309V113.4H183.001V115.38H178.825V126H176.485ZM185.837 126V113.4H188.177V126H185.837ZM192.665 126V113.4H194.591L200.099 122.598H199.091L204.509 113.4H206.435L206.453 126H204.239L204.221 116.874H204.689L200.081 124.56H199.037L194.357 116.874H194.897V126H192.665ZM209.154 126L214.824 113.4H217.128L222.816 126H220.368L215.49 114.642H216.426L211.566 126H209.154ZM211.764 123.084L212.394 121.248H219.198L219.828 123.084H211.764ZM234.109 126V115.38H229.933V113.4H240.625V115.38H236.449V126H234.109ZM245.621 118.638H251.885V120.564H245.621V118.638ZM245.801 124.038H252.911V126H243.461V113.4H252.659V115.362H245.801V124.038ZM256.6 126V113.4H261.784C262.9 113.4 263.854 113.58 264.646 113.94C265.45 114.3 266.068 114.816 266.5 115.488C266.932 116.16 267.148 116.958 267.148 117.882C267.148 118.806 266.932 119.604 266.5 120.276C266.068 120.936 265.45 121.446 264.646 121.806C263.854 122.154 262.9 122.328 261.784 122.328H257.896L258.94 121.266V126H256.6ZM264.844 126L261.658 121.428H264.16L267.364 126H264.844ZM258.94 121.518L257.896 120.402H261.676C262.708 120.402 263.482 120.18 263.998 119.736C264.526 119.292 264.79 118.674 264.79 117.882C264.79 117.078 264.526 116.46 263.998 116.028C263.482 115.596 262.708 115.38 261.676 115.38H257.896L258.94 114.228V121.518ZM269.064 126L274.734 113.4H277.038L282.726 126H280.278L275.4 114.642H276.336L271.476 126H269.064ZM271.674 123.084L272.304 121.248H279.108L279.738 123.084H271.674ZM285.408 126V113.4H290.592C291.708 113.4 292.662 113.58 293.454 113.94C294.258 114.3 294.876 114.816 295.308 115.488C295.74 116.16 295.956 116.958 295.956 117.882C295.956 118.806 295.74 119.604 295.308 120.276C294.876 120.948 294.258 121.464 293.454 121.824C292.662 122.184 291.708 122.364 290.592 122.364H286.704L287.748 121.266V126H285.408ZM287.748 121.518L286.704 120.384H290.484C291.516 120.384 292.29 120.168 292.806 119.736C293.334 119.292 293.598 118.674 293.598 117.882C293.598 117.078 293.334 116.46 292.806 116.028C292.29 115.596 291.516 115.38 290.484 115.38H286.704L287.748 114.228V121.518ZM299.373 126V113.4H301.713V126H299.373ZM304.419 126L310.089 113.4H312.393L318.081 126H315.633L310.755 114.642H311.691L306.831 126H304.419ZM307.029 123.084L307.659 121.248H314.463L315.093 123.084H307.029Z" fill="#FAFAFA"/>
</svg>
